HIERARCHY
ROOT Hips
{
	OFFSET 0.000000 0.000000 0.000000
	CHANNELS 6 Xposition Yposition Zposition Yrotation Xrotation Zrotation
	JOINT Chest
	{
		OFFSET 0.000000 -0.009281 11.569106
		CHANNELS 3 Yrotation Xrotation Zrotation
		JOINT Chest2
		{
			OFFSET -0.000000 0.016865 9.269641
			CHANNELS 3 Yrotation Xrotation Zrotation
			JOINT Chest3
			{
				OFFSET -0.000000 0.000001 8.374491
				CHANNELS 3 Yrotation Xrotation Zrotation
				JOINT Chest4
				{
					OFFSET -0.000000 0.000001 8.374493
					CHANNELS 3 Yrotation Xrotation Zrotation
					JOINT Neck
					{
						OFFSET -0.000000 0.000002 12.152554
						CHANNELS 3 Yrotation Xrotation Zrotation
						JOINT Head
						{
							OFFSET -0.000000 0.040101 7.802319
							CHANNELS 3 Yrotation Xrotation Zrotation
							End Site
							{
								OFFSET -0.000000 0.020947 14.853096
							}
						}
					}
					JOINT RightCollar
					{
						OFFSET 2.894404 0.000001 6.791374
						CHANNELS 3 Yrotation Xrotation Zrotation
						JOINT RightShoulder
						{
							OFFSET 13.574684 0.000001 0.000000
							CHANNELS 3 Yrotation Xrotation Zrotation
							JOINT RightElbow
							{
								OFFSET 23.923903 0.000002 0.000000
								CHANNELS 3 Yrotation Xrotation Zrotation
								JOINT RightWrist
								{
									OFFSET 19.846718 0.012767 0.000000
									CHANNELS 3 Yrotation Xrotation Zrotation
									End Site
									{
										OFFSET 14.973145 0.000001 0.000000
									}
								}
							}
						}
					}
					JOINT LeftCollar
					{
						OFFSET -2.894404 0.000001 6.791374
						CHANNELS 3 Yrotation Xrotation Zrotation
						JOINT LeftShoulder
						{
							OFFSET -13.574684 -0.000001 0.000000
							CHANNELS 3 Yrotation Xrotation Zrotation
							JOINT LeftElbow
							{
								OFFSET -23.923903 -0.000002 0.000000
								CHANNELS 3 Yrotation Xrotation Zrotation
								JOINT LeftWrist
								{
									OFFSET -19.846718 0.012763 0.000000
									CHANNELS 3 Yrotation Xrotation Zrotation
									End Site
									{
										OFFSET -14.973145 -0.000001 0.000000
									}
								}
							}
						}
					}
				}
			}
		}
	}
	JOINT RightHip
	{
		OFFSET 9.469263 0.004643 0.045487
		CHANNELS 3 Yrotation Xrotation Zrotation
		JOINT RightKnee
		{
			OFFSET 0.000000 0.002661 -40.478676
			CHANNELS 3 Yrotation Xrotation Zrotation
			JOINT RightAnkle
			{
				OFFSET 0.000000 0.049106 -35.224068
				CHANNELS 3 Yrotation Xrotation Zrotation
				JOINT RightToe
				{
					OFFSET -0.000001 12.539529 -6.151390
					CHANNELS 3 Yrotation Xrotation Zrotation
					End Site
					{
						OFFSET -0.000001 5.044994 -1.291870
					}
				}
			}
		}
	}
	JOINT LeftHip
	{
		OFFSET -9.469263 0.004641 0.045487
		CHANNELS 3 Yrotation Xrotation Zrotation
		JOINT LeftKnee
		{
			OFFSET 0.000000 0.002661 -40.478676
			CHANNELS 3 Yrotation Xrotation Zrotation
			JOINT LeftAnkle
			{
				OFFSET 0.000000 0.049106 -35.224068
				CHANNELS 3 Yrotation Xrotation Zrotation
				JOINT LeftToe
				{
					OFFSET -0.000001 12.539529 -6.151390
					CHANNELS 3 Yrotation Xrotation Zrotation
					End Site
					{
						OFFSET -0.000001 5.044994 -1.291870
					}
				}
			}
		}
	}
}
MOTION
Frames: 14
Frame Time: 0.016667
20.621454 10.134761 83.065453 -6.612767 -3.596280 -115.209418 -1.642146 -3.971621 8.953655 -0.646500 -1.794357 3.955243 -0.646501 -1.794357 3.955242 -0.473243 -1.350020 2.964293 5.534621 -16.245572 -9.458127 6.888033 6.096287 -15.584709 11.279129 -0.596257 -16.514629 81.589014 2.813558 8.872022 -2.437809 -16.540346 2.682392 -21.892735 14.443130 22.370220 -4.384308 -8.298770 -19.425579 -76.175146 1.497605 -11.510191 3.325885 0.372335 1.017942 19.552159 -0.934449 -28.859813 -0.162531 -11.168655 -1.743866 0.602111 -1.239583 -2.227000 0.946763 4.985694 1.751871 -0.127620 -0.025263 -0.002977 0.170150 -10.842124 2.869248 -0.270687 0.245267 0.638043 1.338321 3.180829 4.231487 0.064852 -0.021795 0.004000 
20.582281 10.146416 83.067947 -6.562873 -3.584034 -115.207260 -1.673809 -4.008159 8.959274 -0.660481 -1.811982 3.957882 -0.660481 -1.811982 3.957883 -0.483605 -1.363334 2.966210 5.641270 -16.373505 -9.474251 7.090188 5.867669 -15.573723 11.345626 -0.600368 -16.518464 81.564671 2.743840 8.960481 -2.393608 -16.613071 2.712380 -21.809904 14.444511 22.376972 -4.361296 -8.275842 -19.427826 -76.049922 1.339774 -11.573597 3.303423 0.254594 1.006880 19.453145 -0.982133 -28.730047 -0.142668 -11.125441 -1.735910 0.591141 -1.160915 -2.298612 0.981887 4.920753 1.793098 -0.126282 -0.027913 -0.003427 0.197352 -10.771371 2.894408 -0.292450 0.266344 0.596416 1.329140 3.139914 4.223162 0.065939 -0.024627 0.005292 
20.536278 10.160384 83.070183 -6.529867 -3.579158 -115.212519 -1.710884 -4.059739 8.973818 -0.675978 -1.836075 3.964232 -0.675978 -1.836075 3.964233 -0.495052 -1.381512 2.970892 5.779798 -16.554956 -9.490758 7.355192 5.542452 -15.551613 11.420066 -0.665138 -16.522668 81.561324 2.683845 9.101899 -2.354731 -16.697514 2.784186 -21.736631 14.453331 22.363685 -4.319375 -8.288140 -19.443815 -75.936117 1.214628 -11.687687 3.282429 0.132941 0.993929 19.325890 -1.093730 -28.550703 -0.127751 -11.078663 -1.723833 0.583207 -1.116690 -2.357467 1.010939 4.870380 1.852304 -0.121369 -0.032244 -0.003034 0.222604 -10.707893 2.903359 -0.306592 0.274340 0.573197 1.317969 3.102906 4.201122 0.062954 -0.028835 0.004141 
20.481060 10.175500 83.072655 -6.509117 -3.579053 -115.225578 -1.751958 -4.123483 8.995925 -0.693154 -1.865682 3.973925 -0.693154 -1.865682 3.973925 -0.507709 -1.403841 2.978069 5.944456 -16.768287 -9.511557 7.669029 5.159979 -15.528614 11.483839 -0.686149 -16.532171 81.556543 2.600021 9.194654 -2.305936 -16.773280 2.878774 -21.674349 14.467155 22.339418 -4.288841 -8.281054 -19.476102 -75.824259 1.151343 -11.785206 3.241768 0.002034 0.974256 19.238203 -1.250766 -28.339452 -0.117566 -11.015971 -1.720236 0.586467 -1.116813 -2.384952 1.026549 4.835134 1.888802 -0.115663 -0.035694 -0.005293 0.240987 -10.647622 2.898187 -0.323485 0.270470 0.571483 1.317127 3.066388 4.252398 0.058672 -0.031545 0.005985 
20.419233 10.194098 83.076393 -6.498775 -3.580487 -115.247257 -1.789914 -4.181165 9.010860 -0.709451 -1.892325 3.979734 -0.709450 -1.892326 3.979734 -0.519739 -1.423938 2.982335 6.118022 -17.019025 -9.527529 8.003241 4.708869 -15.494347 11.540282 -0.712972 -16.529399 81.537965 2.477997 9.249551 -2.253439 -16.836123 2.985260 -21.576098 14.473630 22.289877 -4.293708 -8.260762 -19.451195 -75.713637 1.098171 -11.833198 3.186469 -0.152488 0.945846 19.168733 -1.403215 -28.116197 -0.119195 -10.938568 -1.709712 0.598516 -1.156983 -2.381059 1.034186 4.811908 1.911092 -0.108447 -0.036038 -0.006063 0.267398 -10.584695 2.901630 -0.345063 0.252974 0.579381 1.311220 3.028731 4.235010 0.052894 -0.032259 0.006122 
20.349762 10.212953 83.081581 -6.499631 -3.590010 -115.276340 -1.841784 -4.262709 9.030369 -0.731686 -1.929877 3.987219 -0.731685 -1.929877 3.987219 -0.536144 -1.452256 2.987826 6.314175 -17.271330 -9.537765 8.380410 4.256326 -15.443068 11.613831 -0.751844 -16.531628 81.526620 2.360244 9.343838 -2.182637 -16.914859 3.102878 -21.449314 14.412247 22.231964 -4.246304 -8.268641 -19.426226 -75.619510 1.088096 -11.932159 3.121911 -0.318284 0.898559 19.098754 -1.532389 -27.913395 -0.113088 -10.853771 -1.694880 0.608982 -1.224482 -2.353386 1.033708 4.791805 1.885721 -0.102193 -0.033001 -0.007137 0.288982 -10.530545 2.933093 -0.365334 0.231183 0.590295 1.307880 2.990718 4.204762 0.049131 -0.032052 0.007308 
20.274122 10.230584 83.087456 -6.501463 -3.602380 -115.311789 -1.904792 -4.362240 9.059569 -0.758225 -1.975355 3.998787 -0.758226 -1.975355 3.998790 -0.555711 -1.486555 2.996348 6.514364 -17.502582 -9.545513 8.763463 3.842635 -15.387477 11.702161 -0.806399 -16.540287 81.523751 2.279921 9.468374 -2.087504 -17.052537 3.242325 -21.302079 14.310257 22.149772 -4.147024 -8.302263 -19.440564 -75.555641 1.115548 -12.049033 3.039178 -0.482743 0.811802 19.070146 -1.623680 -27.744397 -0.108487 -10.762661 -1.692282 0.620604 -1.303479 -2.291899 1.031242 4.770551 1.873626 -0.096068 -0.027250 -0.007252 0.315171 -10.474219 2.989532 -0.380110 0.207893 0.594159 1.296853 2.947844 4.178586 0.044728 -0.030200 0.008092 
20.196556 10.248667 83.093224 -6.497181 -3.612651 -115.346268 -1.975553 -4.467895 9.089769 -0.787164 -2.023051 4.010307 -0.787164 -2.023050 4.010308 -0.577060 -1.522533 3.004819 6.695809 -17.704298 -9.555044 9.108559 3.481887 -15.343002 11.803475 -0.854932 -16.547467 81.508971 2.183875 9.581862 -1.989672 -17.203039 3.397018 -21.117816 14.199518 22.048563 -4.037348 -8.328780 -19.480867 -75.490516 1.135349 -12.118482 2.933841 -0.617029 0.697010 19.103810 -1.659637 -27.724957 -0.106184 -10.660122 -1.724577 0.645855 -1.388840 -2.198783 1.017785 4.751331 1.850413 -0.091578 -0.023034 -0.010353 0.339959 -10.411986 3.079460 -0.400512 0.185640 0.580831 1.292291 2.905002 4.177635 0.042001 -0.029074 0.010578 
20.121376 10.269137 83.098419 -6.488716 -3.619364 -115.379257 -2.047062 -4.571644 9.117222 -0.816036 -2.069739 4.019872 -0.816036 -2.069739 4.019874 -0.598372 -1.557754 3.011819 6.845520 -17.854543 -9.566085 9.390651 3.213905 -15.312958 11.898067 -0.856734 -16.566513 81.483972 2.030669 9.639615 -1.900897 -17.357555 3.553000 -20.895272 14.073395 21.913316 -3.922973 -8.364311 -19.531524 -75.437192 1.117827 -12.155649 2.826283 -0.725489 0.578683 19.216923 -1.626963 -27.810416 -0.111518 -10.547528 -1.759594 0.675484 -1.488618 -2.099548 1.004905 4.743782 1.815296 -0.087143 -0.021110 -0.012274 0.370222 -10.345266 3.178963 -0.426750 0.165522 0.574335 1.287889 2.863376 4.119379 0.038672 -0.030142 0.011218 
20.045057 10.292016 83.103149 -6.474772 -3.626977 -115.417725 -2.110281 -4.662495 9.140098 -0.841518 -2.111598 4.026954 -0.841518 -2.111599 4.026954 -0.617178 -1.589328 3.016972 6.957612 -17.947297 -9.571976 9.601045 3.049649 -15.286412 11.996322 -0.894779 -16.583877 81.447950 1.874673 9.718858 -1.816526 -17.543930 3.684616 -20.641863 13.927935 21.784176 -3.828149 -8.415356 -19.564408 -75.381642 1.081018 -12.157116 2.711195 -0.853327 0.444551 19.373476 -1.514428 -27.883120 -0.118153 -10.415803 -1.735846 0.709774 -1.614546 -2.034763 0.987624 4.747626 1.784061 -0.081313 -0.018247 -0.013685 0.394726 -10.272033 3.268063 -0.445318 0.141628 0.576570 1.285627 2.825875 4.058482 0.035263 -0.032748 0.012325 
19.966942 10.316919 83.107521 -6.454575 -3.633548 -115.467804 -2.168302 -4.750415 9.165062 -0.865261 -2.152533 4.034168 -0.865260 -2.152533 4.034169 -0.634686 -1.620199 3.022228 7.032526 -17.971169 -9.566118 9.742207 3.010351 -15.250510 12.098902 -0.948366 -16.600753 81.405063 1.743737 9.822412 -1.724939 -17.778045 3.776256 -20.430996 13.779066 21.711174 -3.746503 -8.467306 -19.587058 -75.343755 1.084235 -12.140108 2.602366 -1.021047 0.304018 19.523177 -1.414796 -27.939119 -0.127237 -10.257050 -1.645574 0.752686 -1.775645 -1.998930 0.959874 4.765878 1.710991 -0.073889 -0.014252 -0.013584 0.420414 -10.192737 3.355499 -0.466649 0.118326 0.576405 1.287084 2.788346 4.026307 0.031573 -0.036073 0.013162 
19.884367 10.343568 83.111496 -6.422964 -3.633473 -115.534125 -2.226023 -4.830118 9.199201 -0.889414 -2.190209 4.044592 -0.889414 -2.190209 4.044591 -0.652513 -1.648631 3.029893 7.072697 -17.937641 -9.546590 9.820186 3.074995 -15.200723 12.205433 -1.005073 -16.628895 81.375427 1.633018 9.928926 -1.649537 -18.052967 3.834701 -20.285966 13.669070 21.686020 -3.661613 -8.529264 -19.608684 -75.330812 1.149896 -12.132999 2.490584 -1.203142 0.170851 19.670340 -1.394141 -27.970448 -0.145036 -10.056260 -1.467840 0.804775 -1.987000 -2.015990 0.928468 4.807249 1.629717 -0.067418 -0.010737 -0.013801 0.446946 -10.095977 3.411688 -0.499092 0.087899 0.608128 1.295939 2.753030 4.017118 0.029064 -0.038899 0.015173 
19.799171 10.373259 83.114700 -6.386047 -3.626013 -115.612194 -2.278033 -4.897716 9.232621 -0.911324 -2.222070 4.054762 -0.911325 -2.222070 4.054763 -0.668692 -1.672689 3.037384 7.083020 -17.877834 -9.509158 9.847598 3.186394 -15.127797 12.297832 -1.073120 -16.642203 81.373194 1.528809 10.016218 -1.610690 -18.311350 3.871802 -20.170568 13.606965 21.663863 -3.584608 -8.608498 -19.613824 -75.346002 1.258072 -12.138926 2.391179 -1.391523 0.069395 19.764199 -1.420059 -27.988486 -0.164448 -9.819052 -1.222017 0.850610 -2.246816 -2.082611 0.899461 4.871564 1.536285 -0.060628 -0.008784 -0.014379 0.468457 -9.985448 3.437486 -0.530971 0.048584 0.658331 1.305275 2.720784 4.012717 0.026678 -0.041743 0.016905 
19.713257 10.402500 83.116982 -6.348961 -3.613994 -115.696697 -2.331321 -4.967091 9.272682 -0.934110 -2.254390 4.067687 -0.934110 -2.254390 4.067689 -0.685517 -1.697103 3.046935 7.075063 -17.795194 -9.458050 9.844548 3.338931 -15.035634 12.390710 -1.130450 -16.636568 81.393800 1.432805 10.096322 -1.599451 -18.504891 3.881196 -20.047292 13.578373 21.618121 -3.517387 -8.636494 -19.622328 -75.380611 1.344351 -12.117410 2.314350 -1.558144 0.015539 19.804688 -1.421757 -27.974621 -0.186311 -9.564135 -0.962580 0.897915 -2.536864 -2.162626 0.866825 4.951076 1.428687 -0.053058 -0.006873 -0.013714 0.488862 -9.875469 3.429909 -0.564272 0.014797 0.711777 1.315605 2.685138 3.997456 0.023422 -0.044527 0.018030 
